<?xml version="1.0" encoding="UTF-8"?>
<mxfile host="app.diagrams.net">
  <diagram id="workday_flow" name="Flowchart">
    <mxGraphModel dx="1070" dy="660" grid="1" gridSize="10" guides="1" tooltips="1" connect="1" arrows="1" fold="1" page="1" pageScale="1" pageWidth="827" pageHeight="1169" math="0" shadow="0">
      <root>
        <mxCell id="0"/>
        <mxCell id="1" parent="0"/>

        <!-- Start -->
        <mxCell id="2" value="Bắt đầu" style="ellipse;whiteSpace=wrap;html=1;" vertex="1" parent="1">
          <mxGeometry x="300" y="20" width="120" height="60" as="geometry"/>
        </mxCell>

        <!-- Liệt kê -->
        <mxCell id="3" value="Liệt kê các công việc cần làm trong ngày" style="rounded=0;whiteSpace=wrap;html=1;" vertex="1" parent="1">
          <mxGeometry x="240" y="120" width="240" height="60" as="geometry"/>
        </mxCell>

        <!-- Chọn -->
        <mxCell id="4" value="Chọn công việc cần làm trước" style="rounded=0;whiteSpace=wrap;html=1;" vertex="1" parent="1">
          <mxGeometry x="240" y="220" width="240" height="60" as="geometry"/>
        </mxCell>

        <!-- Hoàn thành -->
        <mxCell id="5" value="Hoàn thành công việc và đánh dấu đã xong" style="rounded=0;whiteSpace=wrap;html=1;" vertex="1" parent="1">
          <mxGeometry x="220" y="320" width="280" height="60" as="geometry"/>
        </mxCell>

        <!-- Quyết định -->
        <mxCell id="6" value="Còn công việc nào chưa xong không?" style="rhombus;whiteSpace=wrap;html=1;" vertex="1" parent="1">
          <mxGeometry x="250" y="430" width="220" height="100" as="geometry"/>
        </mxCell>

        <!-- Kết thúc -->
        <mxCell id="7" value="Kết thúc ngày làm việc" style="ellipse;whiteSpace=wrap;html=1;" vertex="1" parent="1">
          <mxGeometry x="290" y="600" width="140" height="60" as="geometry"/>
        </mxCell>

        <!-- Các đường nối -->
        <mxCell id="8" style="edgeStyle=orthogonalEdgeStyle;rounded=0;orthogonalLoop=1;jettySize=auto;html=1;" edge="1" parent="1" source="2" target="3">
          <mxGeometry relative="1" as="geometry"/>
        </mxCell>

        <mxCell id="9" style="edgeStyle=orthogonalEdgeStyle;rounded=0;orthogonalLoop=1;jettySize=auto;html=1;" edge="1" parent="1" source="3" target="4">
          <mxGeometry relative="1" as="geometry"/>
        </mxCell>

        <mxCell id="10" style="edgeStyle=orthogonalEdgeStyle;rounded=0;orthogonalLoop=1;jettySize=auto;html=1;" edge="1" parent="1" source="4" target="5">
          <mxGeometry relative="1" as="geometry"/>
        </mxCell>

        <mxCell id="11" style="edgeStyle=orthogonalEdgeStyle;rounded=0;orthogonalLoop=1;jettySize=auto;html=1;" edge="1" parent="1" source="5" target="6">
          <mxGeometry relative="1" as="geometry"/>
        </mxCell>

        <!-- Decision Yes -->
        <mxCell id="12" value="Có" edge="1" parent="1" source="6" target="4">
          <mxGeometry relative="1" as="geometry">
            <mxPoint x="200" y="300" as="targetPoint"/>
          </mxGeometry>
        </mxCell>

        <!-- Decision No -->
        <mxCell id="13" value="Không" edge="1" parent="1" source="6" target="7">
          <mxGeometry relative="1" as="geometry"/>
        </mxCell>

      </root>
    </mxGraphModel>
  </diagram>
</mxfile>
